<?xml version="1.0" encoding="UTF-8" standalone="no"?>
<svg
   xmlns:dc="http://purl.org/dc/elements/1.1/"
   xmlns:cc="http://creativecommons.org/ns#"
   xmlns:rdf="http://www.w3.org/1999/02/22-rdf-syntax-ns#"
   xmlns:svg="http://www.w3.org/2000/svg"
   xmlns="http://www.w3.org/2000/svg"
   xmlns:sodipodi="http://sodipodi.sourceforge.net/DTD/sodipodi-0.dtd"
   xmlns:inkscape="http://www.inkscape.org/namespaces/inkscape"
   inkscape:export-ydpi="96"
   inkscape:export-xdpi="96"
   inkscape:export-filename="D:\homeshop\wav\Kurs\рис_решетки\элементы решетки.png"
   sodipodi:docname="элементы решетки.svg"
   inkscape:version="1.0 (4035a4fb49, 2020-05-01)"
   id="svg8"
   version="1.1"
   viewBox="0 0 148.16666 63.5"
   height="240"
   width="560">
  <defs
     id="defs2" />
  <sodipodi:namedview
     inkscape:guide-bbox="true"
     units="px"
     inkscape:window-maximized="0"
     inkscape:window-y="18"
     inkscape:window-x="12"
     inkscape:window-height="730"
     inkscape:window-width="1350"
     showguides="true"
     showgrid="false"
     inkscape:document-rotation="0"
     inkscape:current-layer="svg8"
     inkscape:document-units="mm"
     inkscape:cy="78.826089"
     inkscape:cx="279.46535"
     inkscape:zoom="1.3606449"
     inkscape:pageshadow="2"
     inkscape:pageopacity="0.0"
     borderopacity="1.0"
     bordercolor="#666666"
     pagecolor="#ffffff"
     id="base" />
  <metadata
     id="metadata5">
    <rdf:RDF>
      <cc:Work
         rdf:about="">
        <dc:format>image/svg+xml</dc:format>
        <dc:type
           rdf:resource="http://purl.org/dc/dcmitype/StillImage" />
        <dc:title></dc:title>
      </cc:Work>
    </rdf:RDF>
  </metadata>
  <g
     id="layer1"
     inkscape:groupmode="layer"
     inkscape:label="Слой 1">
    <path
       d="m 6.932715,22.622018 v 1.747206 1.747206 l 3.163743,-1.747206 z m 3.163743,1.747206 3.163744,1.747206 v -1.747206 -1.747206 z m -2.9537197,-1.436178 2.6707752,1.435717 -2.6707752,1.435836 v -1.435836 z m 5.9074407,0 v 1.435717 1.435836 l -2.670775,-1.435836 z"
       style="fill:#000000;fill-rule:evenodd;stroke-width:0.0747568"
       id="rect48" />
    <path
       inkscape:export-ydpi="96"
       inkscape:export-xdpi="96"
       id="rect48-7"
       style="fill:#000000;fill-rule:evenodd;stroke-width:0.0747568"
       d="m 21.112962,22.622018 v 1.747206 1.747206 l 3.163744,-1.747206 z m 3.163744,1.747206 3.163744,1.747206 v -1.747206 -1.747206 z m -2.95372,-1.436178 2.670775,1.435717 -2.670775,1.435836 v -1.435836 z m 5.90744,0 v 1.435717 1.435836 l -2.670774,-1.435836 z" />
    <path
       id="rect48-8"
       style="fill:#000000;fill-rule:evenodd;stroke-width:0.0747568"
       d="m 35.28276,22.622018 v 1.747206 1.747206 l 3.163743,-1.747206 z m 3.163743,1.747206 3.163743,1.747206 v -1.747206 -1.747206 z m -2.953719,-1.436178 2.670773,1.435717 -2.670773,1.435836 v -1.435836 z m 5.907441,0 v 1.435717 1.435836 l -2.670777,-1.435836 z" />
    <path
       d="m 49.463006,22.622018 v 1.747206 1.747206 l 3.163746,-1.747206 z m 3.163746,1.747206 3.163744,1.747206 v -1.747206 -1.747206 z m -2.953722,-1.436178 2.670777,1.435717 -2.670777,1.435836 v -1.435836 z m 5.907442,0 v 1.435717 1.435836 l -2.670777,-1.435836 z"
       style="fill:#000000;fill-rule:evenodd;stroke-width:0.0747568"
       id="rect48-7-4" />
    <path
       id="rect48-74"
       style="fill:#000000;fill-rule:evenodd;stroke-width:0.0747567"
       d="m 63.857713,22.622018 v 1.747206 1.747206 l 3.163743,-1.747206 z m 3.163743,1.747206 3.163744,1.747206 v -1.747206 -1.747206 z m -2.95372,-1.436178 2.670775,1.435717 -2.670775,1.435836 v -1.435836 z m 5.907441,0 v 1.435717 1.435836 l -2.670775,-1.435836 z" />
    <path
       d="m 78.03796,22.622018 v 1.747206 1.747206 l 3.163744,-1.747206 z m 3.163744,1.747206 3.163744,1.747206 v -1.747206 -1.747206 z m -2.95372,-1.436178 2.670775,1.435717 -2.670775,1.435836 v -1.435836 z m 5.90744,0 v 1.435717 1.435836 L 81.48465,24.368763 Z"
       style="fill:#000000;fill-rule:evenodd;stroke-width:0.0747567"
       id="rect48-7-3" />
    <path
       d="m 92.207759,22.622018 v 1.747206 1.747206 l 3.163742,-1.747206 z m 3.163742,1.747206 3.163745,1.747206 v -1.747206 -1.747206 z m -2.953718,-1.436178 2.670773,1.435717 -2.670773,1.435836 v -1.435836 z m 5.907442,0 v 1.435717 1.435836 l -2.670779,-1.435836 z"
       style="fill:#000000;fill-rule:evenodd;stroke-width:0.0747567"
       id="rect48-8-3" />
    <path
       id="rect48-7-4-9"
       style="fill:#000000;fill-rule:evenodd;stroke-width:0.0747567"
       d="m 106.38801,22.622018 v 1.747206 1.747206 l 3.16374,-1.747206 z m 3.16374,1.747206 3.16374,1.747206 v -1.747206 -1.747206 z m -2.95372,-1.436178 2.67078,1.435717 -2.67078,1.435836 v -1.435836 z m 5.90744,0 v 1.435717 1.435836 l -2.67078,-1.435836 z" />
    <path
       d="m 131.22956,22.622018 v 1.747206 1.747206 l 3.16374,-1.747206 z m 3.16374,1.747206 3.16374,1.747206 v -1.747206 -1.747206 z m -2.95372,-1.436178 2.67078,1.435717 -2.67078,1.435836 v -1.435836 z m 5.90744,0 v 1.435717 1.435836 l -2.67078,-1.435836 z"
       style="fill:#000000;fill-rule:evenodd;stroke-width:0.0747567"
       id="rect48-7-4-9-8" />
    <path
       inkscape:label="path237"
       id="path237"
       d="M 1.925,30.112499 H 145.2"
       style="fill:none;stroke:#000000;stroke-width:0.965;stroke-linecap:butt;stroke-linejoin:miter;stroke-miterlimit:4;stroke-dasharray:none;stroke-opacity:1" />
    <path
       sodipodi:nodetypes="cc"
       id="path1062"
       d="M 10.096458,25.633177 V 45.307866"
       style="fill:none;stroke:#000000;stroke-width:0.264583px;stroke-linecap:butt;stroke-linejoin:miter;stroke-opacity:1" />
    <path
       sodipodi:nodetypes="cc"
       id="path1064"
       d="M 67.021455,25.633176 V 45.89123"
       style="fill:none;stroke:#000000;stroke-width:0.264583px;stroke-linecap:butt;stroke-linejoin:miter;stroke-opacity:1" />
    <path
       sodipodi:nodetypes="cccc"
       d="m 11.39381,38.328646 c 0,0.946392 0,0.740173 0,1.598438 l -0.799218,-0.799219 z"
       style="font-variation-settings:normal;opacity:1;vector-effect:none;fill:#000000;fill-opacity:1;fill-rule:evenodd;stroke-width:0.264583;stroke-linecap:butt;stroke-linejoin:miter;stroke-miterlimit:4;stroke-dasharray:none;stroke-dashoffset:0;stroke-opacity:1;stop-color:#000000;stop-opacity:1"
       id="rect1066" />
    <path
       id="rect1066-4"
       style="font-variation-settings:normal;opacity:1;vector-effect:none;fill:#000000;fill-opacity:1;fill-rule:evenodd;stroke-width:0.264583;stroke-linecap:butt;stroke-linejoin:miter;stroke-miterlimit:4;stroke-dasharray:none;stroke-dashoffset:0;stroke-opacity:1;stop-color:#000000;stop-opacity:1"
       d="m 65.775061,38.328646 c 0,0.946392 0,0.740173 0,1.598438 l 0.799219,-0.799219 z"
       sodipodi:nodetypes="cccc" />
    <path
       sodipodi:nodetypes="cc"
       id="path1092"
       d="M 11.226568,39.127864 H 66.112451"
       style="fill:none;stroke:#000000;stroke-width:0.265;stroke-linecap:round;stroke-linejoin:miter;stroke-miterlimit:4;stroke-dasharray:none;stroke-opacity:1" />
    <path
       sodipodi:nodetypes="cc"
       id="path1100"
       d="m 10.0375,18.933685 v -5.69931"
       style="fill:none;stroke:#000000;stroke-width:0.165;stroke-linecap:round;stroke-linejoin:miter;stroke-miterlimit:4;stroke-dasharray:none;stroke-opacity:1" />
    <path
       sodipodi:nodetypes="cc"
       id="path1102"
       d="m 11.366215,19.095151 3.578162,-5.114775"
       style="fill:none;stroke:#000000;stroke-width:0.165;stroke-linecap:round;stroke-linejoin:miter;stroke-miterlimit:4;stroke-dasharray:none;stroke-opacity:1" />
    <text
       id="text1280"
       y="36.897717"
       x="36.508804"
       style="font-style:normal;font-weight:normal;font-size:3.52778px;line-height:1.25;font-family:sans-serif;fill:#000000;fill-opacity:1;stroke:none;stroke-width:0.264583"
       xml:space="preserve"><tspan
         style="font-size:3.52778px;stroke-width:0.264583"
         y="36.897717"
         x="36.508804"
         id="tspan1278"
         sodipodi:role="line">d</tspan></text>
    <text
       id="text1284"
       y="37.5783"
       x="38.59919"
       style="font-style:normal;font-weight:normal;font-size:1.05833px;line-height:1.25;font-family:sans-serif;fill:#000000;fill-opacity:1;stroke:none;stroke-width:0.264583"
       xml:space="preserve"><tspan
         style="font-size:1.76389px;stroke-width:0.264583"
         y="37.5783"
         x="38.59919"
         id="tspan1282"
         sodipodi:role="line">n</tspan></text>
    <text
       id="text1294"
       y="13.028442"
       x="11.278353"
       style="font-style:normal;font-weight:normal;font-size:3.52778px;line-height:1.25;font-family:sans-serif;fill:#000000;fill-opacity:1;stroke:none;stroke-width:0.264583"
       xml:space="preserve"><tspan
         style="font-size:3.52778px;stroke-width:0.264583"
         y="13.028442"
         x="11.278353"
         id="tspan1292"
         sodipodi:role="line">θ</tspan></text>
  </g>
  <path
     d="m 11.18123,15.51425 a 2.2848371,2.2848371 0 0 0 -1.1436,0.306957 v 0.08475 a 2.2119168,2.2119168 0 0 1 1.142566,-0.318844 2.2119168,2.2119168 0 0 1 10e-4,0 2.2119168,2.2119168 0 0 1 1.886189,1.0573 h 0.08475 A 2.2848371,2.2848371 0 0 0 11.18123,15.51425 Z"
     style="fill:#000000;stroke-width:0.165;stroke-linecap:round;stroke-miterlimit:4;stroke-dasharray:none"
     id="path1191" />
  <text
     id="text1222"
     y="22.313639"
     x="9.6254911"
     style="font-style:normal;font-weight:normal;font-size:2.82222222px;line-height:1.25;font-family:sans-serif;fill:#000000;fill-opacity:1;stroke:none;stroke-width:0.264583;"
     xml:space="preserve"><tspan
       style="stroke-width:0.264583;font-size:2.82222222px;"
       y="22.313639"
       x="9.6254911"
       id="tspan1220"
       sodipodi:role="line">0</tspan></text>
  <text
     xml:space="preserve"
     style="font-style:normal;font-weight:normal;font-size:2.82222222px;line-height:1.25;font-family:sans-serif;fill:#000000;fill-opacity:1;stroke:none;stroke-width:0.264583;"
     x="23.891947"
     y="22.664038"
     id="text1222-3"><tspan
       sodipodi:role="line"
       id="tspan1220-0"
       x="23.891947"
       y="22.664038"
       style="stroke-width:0.264583;font-size:2.82222222px;">1</tspan></text>
  <text
     id="text1222-3-0"
     y="22.146832"
     x="66.416321"
     style="font-style:normal;font-weight:normal;font-size:2.82222222px;line-height:1.25;font-family:sans-serif;fill:#000000;fill-opacity:1;stroke:none;stroke-width:0.264583;"
     xml:space="preserve"><tspan
       style="stroke-width:0.264583;font-size:2.82222222px;"
       y="22.146832"
       x="66.416321"
       id="tspan1220-0-9"
       sodipodi:role="line">n</tspan></text>
  <text
     xml:space="preserve"
     style="font-style:normal;font-weight:normal;font-size:2.82222px;line-height:1.25;font-family:sans-serif;fill:#000000;fill-opacity:1;stroke:none;stroke-width:0.264583"
     x="132.1136"
     y="21.611986"
     id="text1222-3-0-6"><tspan
       sodipodi:role="line"
       id="tspan1220-0-9-0"
       x="132.1136"
       y="21.611986"
       style="font-size:2.82222px;stroke-width:0.264583">N-1</tspan></text>
</svg>
